<?xml version="1.0" standalone="no"?>
<!DOCTYPE svg PUBLIC "-//W3C//DTD SVG 20010904//EN"
 "http://www.w3.org/TR/2001/REC-SVG-20010904/DTD/svg10.dtd">
<svg version="1.0" xmlns="http://www.w3.org/2000/svg"
 width="1312.000000pt" height="1312.000000pt" viewBox="0 0 1312.000000 1312.000000"
 preserveAspectRatio="xMidYMid meet">

<g transform="translate(0.000000,1312.000000) scale(0.100000,-0.100000)"
fill="#000000" stroke="none">
<path d="M6328 8570 c-98 -17 -168 -77 -183 -156 -5 -29 -2 -41 13 -57 28 -27
53 -10 67 44 20 84 89 103 325 93 140 -6 157 -5 170 11 19 23 2 48 -41 56 -57
12 -301 18 -351 9z"/>
<path d="M6630 8247 c-42 -15 -49 -41 -19 -73 49 -52 127 -52 151 1 10 22 8
30 -9 53 -23 31 -68 38 -123 19z"/>
<path d="M6365 8217 c-51 -17 -85 -38 -85 -54 0 -26 63 -46 142 -47 86 0 108
11 108 55 0 22 -6 32 -26 39 -45 17 -98 20 -139 7z"/>
<path d="M7527 8217 c-3 -9 -9 -43 -13 -76 -11 -102 -49 -122 -76 -40 l-14 43
-22 -36 c-12 -20 -43 -55 -68 -78 l-47 -43 -78 6 -79 6 0 -27 c0 -51 -104
-128 -161 -120 -26 4 -29 2 -29 -22 0 -15 -9 -53 -20 -86 -27 -76 -24 -109 10
-109 20 0 26 6 30 30 3 18 14 34 27 40 12 5 24 22 27 38 4 22 16 32 53 48 77
33 92 41 133 76 21 18 44 33 52 33 7 0 45 16 83 35 138 70 274 67 388 -8 93
-61 343 -314 354 -357 8 -34 17 -39 219 -140 211 -105 227 -115 369 -224 75
-57 80 -63 131 -170 29 -61 74 -174 100 -251 97 -293 237 -545 302 -545 36 0
35 20 -3 55 -36 32 -36 34 -16 44 11 7 68 17 126 23 127 14 134 10 147 -83 4
-34 13 -68 19 -76 21 -25 31 -14 25 30 -3 23 -8 72 -12 109 -6 56 -10 69 -27
74 -11 4 -94 9 -183 13 -180 7 -192 11 -221 81 -14 32 -14 35 7 52 12 10 30
18 39 19 354 15 358 15 386 33 l28 18 -7 100 c-7 112 -5 120 60 189 76 83 80
171 9 225 -41 31 -52 63 -58 172 -5 76 -17 112 -38 112 -4 0 -5 -55 -2 -122 4
-78 1 -150 -7 -195 l-12 -73 -303 0 -303 0 -27 74 c-15 41 -24 79 -20 85 3 6
29 11 56 11 60 0 119 23 119 46 0 11 -5 14 -17 9 -66 -25 -173 -22 -243 7 -19
8 -59 35 -88 60 -29 26 -80 60 -112 77 -72 39 -90 62 -90 118 0 24 -3 43 -7
43 -5 -1 -28 -26 -53 -56 l-45 -55 -3 65 c-3 72 -13 82 -36 37 -35 -66 -66
-42 -73 56 -7 96 -13 106 -32 49 -9 -27 -21 -51 -28 -53 -20 -7 -91 73 -102
115 -6 21 -26 56 -46 79 -19 22 -39 53 -45 67 -7 20 -16 26 -38 26 -29 0 -50
14 -151 97 -42 35 -61 43 -108 48 -32 3 -65 7 -73 8 -22 3 -40 47 -40 102 0
55 -13 88 -23 62z m2041 -1119 c7 -7 12 -33 12 -60 0 -39 -4 -50 -24 -63 -59
-39 -86 38 -40 113 16 24 34 28 52 10z m-119 -132 c28 -26 32 -75 8 -99 -19
-19 -30 -19 -236 -14 -244 6 -284 14 -307 58 -37 72 -11 78 304 75 183 -3 215
-5 231 -20z m-12 -188 c22 -20 59 -116 48 -126 -4 -4 -102 -7 -218 -7 -222 0
-267 7 -287 46 -14 25 -13 27 13 31 21 4 21 5 -5 18 -39 19 -35 38 10 45 20 4
44 8 52 10 8 2 94 3 191 2 151 -2 180 -4 196 -19z"/>
<path d="M6166 8015 c8 -136 7 -136 54 -90 37 37 40 38 58 22 20 -18 57 -23
67 -8 3 5 -9 19 -27 32 -18 12 -61 49 -95 83 l-63 60 6 -99z"/>
<path d="M6585 8034 c-49 -8 -99 -18 -110 -22 -18 -8 -16 -11 22 -31 57 -29
82 -27 139 12 43 29 68 59 47 56 -4 -1 -48 -7 -98 -15z"/>
<path d="M3206 7908 c-11 -42 -6 -67 19 -94 22 -24 25 -36 25 -104 0 -64 -4
-82 -21 -105 -16 -20 -23 -45 -26 -93 -2 -37 -5 -78 -6 -92 -1 -18 5 -28 26
-38 55 -27 77 -122 36 -163 -15 -15 -24 -41 -29 -88 -9 -78 -19 -121 -29 -121
-15 0 -32 -55 -37 -119 -3 -49 -2 -60 6 -43 12 29 36 38 56 21 14 -11 16 -29
12 -106 -6 -99 -26 -150 -55 -139 -8 3 -26 9 -41 13 l-26 6 23 -37 c13 -20 20
-43 17 -51 -5 -14 -2 -14 23 0 44 22 79 71 97 133 9 31 19 60 23 63 8 8 446
-7 596 -20 66 -6 291 -18 500 -26 209 -8 419 -18 467 -21 l86 -7 41 44 c22 24
56 62 75 84 l34 40 94 0 c117 1 128 7 389 201 256 192 378 298 379 332 0 6 -1
12 -2 12 -2 0 -48 16 -102 36 l-100 35 47 -50 c26 -28 47 -57 47 -65 0 -55
-238 -159 -256 -112 -7 19 -34 21 -34 2 0 -7 9 -25 20 -39 11 -14 20 -32 20
-40 0 -18 -76 -79 -207 -164 -108 -71 -137 -81 -165 -56 -19 17 -20 17 -37 -6
-17 -22 -19 -23 -42 -8 -40 26 -311 44 -1084 72 -708 26 -753 28 -766 36 -10
6 -9 19 4 63 10 30 22 58 26 60 5 3 163 -1 352 -9 1018 -44 1579 -56 1579 -36
0 5 -19 11 -42 15 -111 15 -1106 61 -1618 74 -256 7 -275 8 -278 25 -6 33 8
84 33 121 30 45 31 57 4 82 -20 18 -20 18 -14 -9 6 -23 4 -27 -13 -27 -32 0
-72 38 -72 70 0 54 40 161 72 190 39 36 35 66 -10 64 -31 -2 -32 0 -32 35 0
21 -9 64 -20 96 -29 84 -52 107 -64 63z m314 -948 c174 -10 1465 -60 1540 -60
l34 0 -44 -46 c-25 -25 -58 -53 -75 -62 -45 -24 -272 -27 -670 -8 -1008 48
-989 47 -1007 62 -17 17 -34 106 -23 124 4 6 19 9 33 6 15 -3 110 -10 212 -16z"/>
<path d="M6521 7919 c-30 -5 -57 -12 -60 -14 -13 -14 20 -20 102 -17 101 3
149 12 155 30 4 14 -113 15 -197 1z"/>
<path d="M6233 7843 c-7 -2 -13 -19 -13 -37 0 -35 -24 -63 -96 -108 -23 -15
-69 -58 -104 -97 -50 -57 -69 -71 -91 -71 -24 0 -29 -4 -29 -24 0 -30 24 -56
52 -56 22 0 75 52 123 121 17 24 44 52 60 62 17 10 66 41 110 70 106 68 130
78 193 79 67 1 100 -21 127 -86 16 -39 17 -49 6 -55 -8 -5 -70 -7 -140 -4
-144 5 -150 -8 -12 -27 123 -17 129 -18 135 -38 11 -34 8 -198 -4 -275 -7 -43
-10 -80 -7 -83 3 -3 38 0 76 7 83 14 82 12 51 149 -27 119 -26 161 6 199 32
38 31 95 -1 97 -11 1 -25 2 -32 3 -6 1 -14 11 -18 24 -11 39 -28 67 -41 67 -8
0 -17 15 -22 33 -6 24 -16 35 -43 44 -33 12 -261 17 -286 6z"/>
<path d="M5169 7798 c-18 -66 -18 -480 0 -501 23 -29 121 -17 121 15 0 6 -12
8 -31 4 -58 -11 -59 -8 -59 265 0 248 -8 302 -31 217z"/>
<path d="M7310 7826 c-10 -13 -22 -68 -35 -156 -3 -20 -21 -60 -40 -90 -57
-89 -105 -240 -76 -240 13 0 50 75 51 101 0 9 21 41 48 70 l47 52 3 101 c4 96
14 132 33 120 5 -3 9 -27 9 -55 0 -53 10 -60 48 -33 30 21 28 33 -12 86 -39
51 -60 63 -76 44z"/>
<path d="M7130 7699 c-57 -23 -77 -55 -151 -252 -27 -73 -63 -154 -79 -180
-37 -59 -37 -74 -4 -89 35 -16 58 0 60 43 1 46 44 127 88 166 25 22 36 40 36
60 0 57 22 107 65 148 48 47 62 79 45 100 -14 17 -25 18 -60 4z"/>
<path d="M7586 7702 c-2 -4 -2 -20 1 -35 7 -33 47 -67 80 -67 32 0 63 -17 63
-35 0 -22 29 -45 57 -45 32 0 95 30 90 43 -1 5 -32 19 -68 31 -35 12 -74 31
-86 43 -34 34 -128 79 -137 65z"/>
<path d="M6775 7625 l-30 -24 28 -1 c65 0 86 -45 52 -110 -15 -29 -30 -36 -90
-43 l-30 -3 45 -22 c25 -12 62 -22 82 -22 33 0 39 4 45 28 5 15 8 56 8 92 0
52 -5 72 -23 98 -28 38 -47 40 -87 7z"/>
<path d="M3476 7615 c-3 -9 -3 -49 1 -91 6 -69 4 -76 -18 -100 -18 -20 -21
-29 -13 -42 6 -9 21 -18 33 -20 29 -5 41 31 41 127 0 103 -25 175 -44 126z"/>
<path d="M7388 7593 c-42 -11 -10 -36 59 -48 23 -3 47 -13 54 -21 14 -17 61
-18 77 -2 7 7 12 22 12 35 0 17 -8 24 -37 32 -38 11 -132 13 -165 4z"/>
<path d="M7933 7564 c-3 -8 -3 -46 1 -83 4 -49 2 -73 -7 -85 -13 -17 -16 -17
-44 14 -30 32 -31 33 -42 11 -9 -16 -8 -41 5 -108 10 -57 14 -109 10 -148 -5
-46 -3 -56 6 -47 7 7 29 12 51 12 35 0 39 3 54 38 29 70 43 180 32 266 -15
116 -47 180 -66 130z"/>
<path d="M6230 7529 c-19 -6 -42 -13 -50 -16 -26 -11 69 -21 198 -22 95 -1
123 2 120 12 -10 29 -191 47 -268 26z"/>
<path d="M3989 7462 c-1 -4 -2 -18 -3 -32 -2 -36 -49 -49 -196 -51 -147 -2
-125 -9 97 -33 159 -18 310 -21 333 -6 18 11 8 15 -59 25 -24 3 -57 15 -73 26
l-29 21 7 -26 c5 -20 2 -26 -9 -26 -16 0 -20 10 -32 67 -5 28 -33 54 -36 35z"/>
<path d="M7290 7411 c-11 -22 -14 -161 -2 -161 13 1 82 94 89 119 12 46 -65
83 -87 42z"/>
<path d="M4709 7363 l-44 -48 54 -3 c33 -2 57 1 61 8 8 14 -9 90 -20 90 -4 0
-27 -21 -51 -47z"/>
<path d="M6175 7401 c-28 -5 -61 -11 -73 -15 -79 -26 67 -43 235 -28 128 11
167 22 142 38 -18 11 -239 15 -304 5z"/>
<path d="M4452 7374 c-26 -18 -29 -49 -6 -58 23 -9 157 -7 172 3 26 16 -14 34
-60 27 -38 -6 -44 -4 -53 16 -13 29 -25 32 -53 12z"/>
<path d="M4899 7355 c-63 -34 -39 -65 55 -72 86 -7 136 2 136 26 0 29 -28 48
-48 33 -33 -24 -42 -24 -73 2 -35 30 -35 30 -70 11z"/>
<path d="M7695 7351 c-34 -14 -75 -62 -75 -88 0 -35 29 -92 52 -104 47 -25
120 33 122 98 l1 38 -49 0 c-58 0 -70 17 -27 40 17 8 31 18 31 20 0 8 -33 5
-55 -4z"/>
<path d="M7050 7311 c-11 -22 -14 -121 -3 -121 4 0 16 9 28 20 12 11 41 26 65
33 53 15 65 37 20 37 -39 0 -70 16 -70 35 0 22 -28 18 -40 -4z"/>
<path d="M6117 7287 c-3 -9 -1 -32 4 -51 12 -43 41 -54 95 -36 56 19 159 6
204 -25 27 -19 49 -25 87 -25 29 0 63 -4 77 -10 23 -8 24 -12 15 -42 -14 -49
-12 -53 24 -55 17 -1 47 -4 65 -8 30 -7 32 -6 32 20 0 52 -94 115 -171 115
-38 0 -69 27 -69 60 0 16 -6 32 -12 37 -7 4 -71 10 -143 14 -71 4 -146 10
-166 14 -28 5 -38 3 -42 -8z"/>
<path d="M8110 7288 c0 -7 16 -33 35 -57 40 -50 43 -66 15 -83 -26 -16 -26
-48 -1 -48 58 0 69 83 20 143 -35 43 -69 65 -69 45z"/>
<path d="M7257 7186 c-70 -26 -62 -32 53 -39 94 -7 140 -20 174 -52 33 -31 36
-31 36 -2 0 69 -168 128 -263 93z"/>
<path d="M8270 7180 c0 -34 140 -164 157 -146 18 18 -58 129 -102 150 -44 21
-55 20 -55 -4z"/>
<path d="M6007 7144 c-8 -46 4 -104 22 -104 34 0 135 75 125 92 -3 5 -26 6
-51 2 -40 -6 -45 -4 -50 15 -8 30 -40 27 -46 -5z"/>
<path d="M6240 7141 c0 -5 11 -16 25 -25 27 -18 45 -70 45 -133 0 -51 -2 -52
-125 -23 -47 11 -96 20 -108 20 -19 0 -17 -5 18 -35 l40 -34 -58 -1 c-51 0
-60 3 -64 20 -8 28 -21 25 -77 -19 -63 -50 -150 -153 -177 -209 -12 -24 -33
-51 -48 -60 -32 -21 -46 -37 -71 -83 -30 -57 -114 -152 -187 -212 -63 -51
-111 -78 -190 -107 -34 -13 -43 -36 -21 -58 15 -15 55 -16 63 -1 4 6 37 25 74
42 84 40 282 231 331 320 31 55 35 58 69 57 55 -3 61 -1 61 16 0 12 -6 15 -26
10 -22 -6 -25 -4 -22 15 2 13 18 30 38 40 37 20 125 26 135 9 11 -17 44 -11
55 10 14 27 7 37 -33 45 -17 4 -40 14 -49 23 -21 18 -24 55 -5 69 6 6 98 18
202 27 196 17 289 34 283 51 -2 6 -16 10 -33 10 -30 0 -30 1 -33 61 -3 71 1
75 73 64 57 -9 93 3 75 24 -5 8 -34 17 -62 20 -28 4 -77 18 -109 32 -61 25
-89 30 -89 15z"/>
<path d="M7634 7076 c-25 -24 -44 -53 -44 -65 0 -29 -28 -27 -89 4 -35 19 -57
24 -75 19 l-27 -6 21 -23 c29 -31 127 -77 176 -83 50 -5 84 22 84 67 0 17 11
42 25 59 64 76 2 101 -71 28z"/>
<path d="M6879 7011 c-44 -31 -99 -46 -199 -56 -57 -6 -130 -40 -138 -64 -3
-10 2 -12 19 -8 13 3 94 16 179 27 192 27 205 32 205 84 0 22 -5 41 -11 43 -6
2 -30 -10 -55 -26z"/>
<path d="M8183 6978 c-30 -32 -43 -71 -43 -126 l0 -47 20 32 c10 18 28 41 39
52 32 32 42 99 15 108 -5 2 -20 -7 -31 -19z"/>
<path d="M6880 6867 c0 -39 -8 -51 -25 -37 -8 6 -58 6 -146 0 -74 -5 -211 -14
-304 -19 -94 -6 -181 -14 -195 -19 -22 -8 -22 -9 -4 -16 10 -5 156 -12 323
-17 307 -8 400 -18 421 -45 18 -20 43 -18 36 4 -3 9 -8 31 -12 47 -13 57 -63
135 -86 135 -4 0 -8 -15 -8 -33z"/>
<path d="M8502 6838 c-14 -14 -1 -56 59 -197 74 -175 65 -238 -36 -256 -47 -8
-65 -21 -65 -45 0 -15 8 -18 48 -17 42 2 47 -1 50 -20 2 -13 15 -32 30 -44 39
-30 51 -57 52 -114 0 -59 -23 -155 -46 -190 -8 -13 -31 -29 -50 -35 -36 -12
-43 -34 -24 -71 15 -27 58 -25 62 3 3 25 34 36 51 19 6 -6 12 -31 12 -56 2
-51 10 -64 28 -46 8 8 13 71 15 215 4 223 -4 265 -52 287 -27 13 -42 39 -28
48 13 9 47 78 66 138 14 43 15 59 6 94 -21 77 -131 283 -156 293 -6 2 -16 0
-22 -6z"/>
<path d="M6287 6683 c-24 -23 22 -52 106 -67 23 -4 43 -16 53 -31 17 -27 54
-34 54 -11 0 26 -63 75 -123 96 -65 22 -80 24 -90 13z"/>
<path d="M7600 6616 c0 -19 46 -66 65 -66 9 0 18 7 21 15 9 22 47 18 100 -10
47 -25 78 -30 108 -19 27 10 18 21 -22 26 -21 3 -70 19 -108 36 -63 29 -70 30
-82 15 -11 -16 -14 -16 -41 0 -35 21 -41 21 -41 3z"/>
<path d="M3231 6564 c-83 -36 -23 -41 799 -70 741 -26 910 -29 910 -15 0 37
-200 56 -955 86 -480 19 -708 19 -754 -1z"/>
<path d="M7950 6513 c0 -35 51 -68 144 -92 48 -13 89 -21 92 -19 2 3 -16 24
-41 47 -41 38 -49 41 -99 41 -44 0 -59 5 -76 22 l-20 22 0 -21z"/>
<path d="M3142 6479 c-12 -31 -5 -52 24 -80 20 -19 29 -21 52 -13 22 8 28 16
30 47 3 36 2 37 -29 37 -18 0 -41 7 -51 16 -16 16 -18 15 -26 -7z"/>
<path d="M6981 6489 c-83 -16 -97 -67 -16 -56 57 8 92 25 98 48 6 21 -8 23
-82 8z"/>
<path d="M7634 6466 c-3 -8 -4 -27 -2 -43 4 -33 36 -43 74 -22 33 17 30 36 -8
59 -39 24 -57 25 -64 6z"/>
<path d="M8242 6454 l-24 -16 31 -19 c31 -19 36 -31 45 -108 2 -24 10 -48 18
-52 15 -10 99 -12 122 -3 26 10 18 31 -14 38 -26 5 -35 15 -56 63 -43 99 -49
108 -74 111 -14 1 -35 -5 -48 -14z"/>
<path d="M7812 6358 c-18 -18 -15 -97 4 -105 21 -8 34 14 34 58 0 42 -19 66
-38 47z"/>
<path d="M7936 6348 c-51 -28 -63 -173 -14 -173 22 0 38 -49 38 -121 0 -63 3
-73 22 -86 20 -13 21 -17 9 -32 -19 -22 -46 -20 -70 5 -12 14 -54 31 -107 45
-48 13 -96 32 -108 43 -12 11 -48 27 -81 36 -82 23 -105 39 -105 74 0 36 -20
53 -57 49 -22 -2 -29 -9 -34 -36 -9 -46 -21 -55 -68 -55 -52 0 -67 14 -76 69
-3 25 -15 54 -26 65 -10 10 -19 28 -19 39 0 28 -25 25 -38 -5 -17 -37 -15 -75
5 -98 17 -18 17 -20 -6 -38 -36 -30 -106 -26 -137 8 -24 26 -24 26 -45 7 -23
-21 -34 -22 -331 -14 -125 4 -170 2 -179 -7 -9 -9 -10 -16 -3 -23 11 -11 188
-25 518 -40 126 -6 287 -20 358 -30 129 -19 401 -85 469 -114 53 -22 97 -62
121 -110 42 -85 106 -128 94 -63 -3 17 -10 89 -16 159 -11 144 -19 183 -55
288 -15 41 -27 94 -27 117 0 48 -5 56 -32 41z"/>
<path d="M3420 6333 c-76 -5 -88 -10 -69 -28 23 -22 214 -36 1044 -75 444 -21
583 -33 627 -56 59 -30 40 28 -23 72 -51 35 -112 42 -479 54 -173 6 -362 15
-420 19 -127 10 -603 20 -680 14z"/>
<path d="M6640 6305 c0 -7 96 -54 142 -71 77 -27 29 26 -51 57 -48 18 -91 25
-91 14z"/>
<path d="M6417 6190 c-16 -5 -35 -15 -44 -22 -12 -10 -91 -14 -317 -19 -330
-7 -302 -2 -436 -75 -34 -18 -59 -24 -110 -24 -73 0 -93 -8 -90 -36 4 -37 -1
-44 -48 -68 -83 -42 -182 -162 -257 -310 -51 -102 -49 -102 -305 -86 -410 24
-528 29 -946 36 -368 6 -615 1 -602 -11 13 -13 1101 -73 1458 -80 146 -3 298
-11 338 -17 84 -13 92 -8 92 52 0 47 31 103 106 192 34 40 76 95 94 122 41 61
108 94 345 173 160 53 177 56 284 59 63 2 158 6 212 10 64 4 125 2 178 -6 44
-8 84 -11 87 -7 3 3 -1 16 -10 29 -22 32 -20 47 9 53 14 3 36 7 50 10 14 3 25
12 25 20 0 17 -64 20 -113 5z"/>
<path d="M9217 6193 c-11 -11 -8 -58 5 -71 25 -25 98 -12 98 18 0 36 -80 77
-103 53z"/>
<path d="M8337 6183 c-13 -12 -7 -58 13 -100 28 -64 50 -53 50 26 0 54 -38 99
-63 74z"/>
<path d="M9001 6139 c-19 -16 -33 -18 -65 -14 -33 5 -47 2 -69 -15 -15 -12
-34 -20 -42 -17 -23 9 -32 -14 -39 -93 -3 -41 -11 -135 -17 -207 -11 -123 -10
-135 7 -160 10 -16 17 -38 15 -50 -3 -26 7 -29 32 -10 15 11 16 18 5 68 -9 42
-9 94 0 210 12 179 20 206 59 214 15 3 57 12 93 20 60 15 66 14 77 -2 7 -9 13
-24 13 -32 0 -9 5 -23 10 -31 9 -13 11 -13 20 0 20 31 11 71 -24 106 -39 39
-43 40 -75 13z"/>
<path d="M9384 6105 c-27 -42 -8 -52 114 -60 116 -7 152 -16 152 -40 0 -9 9
-15 24 -15 33 0 36 -20 24 -156 -10 -123 -5 -188 15 -181 20 6 25 47 26 210 1
169 10 211 52 240 40 28 14 29 -71 3 -125 -40 -280 -35 -280 9 0 24 -38 17
-56 -10z"/>
<path d="M3386 6092 c-9 -15 29 -38 84 -52 60 -14 462 -28 1075 -36 397 -6
506 -4 524 6 20 10 21 14 10 21 -50 28 -1677 86 -1693 61z"/>
<path d="M3210 6037 c0 -35 62 -64 120 -55 61 9 10 53 -75 65 -37 5 -45 3 -45
-10z"/>
<path d="M5940 6042 c0 -29 175 -53 405 -56 163 -1 255 8 255 25 0 5 -57 9
-132 9 -140 1 -387 14 -475 26 -34 4 -53 3 -53 -4z"/>
<path d="M8274 5973 c3 -16 10 -52 16 -82 13 -73 77 -178 96 -158 3 3 -3 34
-15 69 -11 35 -23 82 -27 106 -7 47 -37 92 -61 92 -12 0 -14 -7 -9 -27z"/>
<path d="M8980 5934 c-7 -21 -9 -54 -5 -79 6 -46 -8 -89 -39 -114 -20 -17 -20
-31 -1 -31 21 0 19 -16 -6 -33 -25 -18 -9 -32 27 -23 20 5 24 13 24 41 0 38
13 49 72 60 73 14 73 61 0 67 l-37 3 4 73 c2 59 0 72 -12 72 -9 0 -21 -16 -27
-36z"/>
<path d="M9330 5896 c0 -22 68 -156 79 -156 14 0 21 27 21 80 0 48 -17 80 -43
80 -7 0 -22 3 -34 6 -17 5 -23 2 -23 -10z"/>
<path d="M3368 5853 c-14 -2 -32 -10 -38 -18 -9 -11 -4 -16 27 -24 83 -23 600
-46 1238 -57 309 -5 363 -4 379 9 19 14 19 15 -1 26 -13 6 -146 15 -345 21
-476 15 -1147 39 -1193 44 -22 2 -52 1 -67 -1z"/>
<path d="M5610 5800 c0 -28 357 -84 705 -110 157 -12 241 -26 270 -46 27 -19
105 -19 105 0 0 18 -24 42 -60 61 -16 8 -140 27 -296 44 -524 59 -724 73 -724
51z"/>
<path d="M7007 5794 c-73 -22 -50 -38 46 -31 82 5 115 20 87 37 -21 14 -77 11
-133 -6z"/>
<path d="M8267 5784 c-10 -17 -17 -79 -26 -234 -5 -85 -14 -167 -20 -182 -18
-48 14 -34 58 25 56 75 94 155 87 183 -4 13 -11 24 -17 24 -16 0 -49 81 -49
121 0 36 -22 79 -33 63z"/>
<path d="M7338 5745 c-47 -18 -144 -31 -353 -51 -176 -16 -245 -28 -245 -44 0
-24 88 -22 345 10 273 33 329 47 323 78 -4 22 -24 24 -70 7z"/>
<path d="M7675 5753 c-11 -3 -87 -27 -170 -53 -144 -46 -256 -76 -430 -115
-82 -18 -135 -39 -135 -54 0 -12 150 -24 186 -15 60 14 526 174 571 196 56 27
68 49 26 47 -15 -1 -37 -4 -48 -6z"/>
<path d="M5740 5720 c0 -36 328 -169 420 -170 42 -1 102 -34 180 -100 99 -83
119 -95 131 -83 16 16 1 36 -56 73 -86 55 -84 81 6 72 40 -4 49 -2 49 11 0 21
-87 49 -270 87 -182 39 -275 63 -369 95 -83 28 -91 29 -91 15z"/>
<path d="M9170 5636 c-27 -10 -35 -19 -35 -37 0 -15 -7 -25 -18 -27 -11 -2
-16 -9 -13 -18 9 -24 -33 -37 -107 -31 -51 3 -74 10 -89 24 -20 20 -20 20 -43
-3 -13 -13 -60 -34 -106 -48 -84 -26 -129 -49 -129 -67 0 -12 63 -11 117 1 23
5 94 14 159 20 166 15 223 43 285 139 42 65 40 69 -21 47z"/>
<path d="M9244 5574 c4 -16 10 -43 13 -61 6 -35 5 -35 -81 -47 -47 -6 -53 -11
-35 -32 10 -13 24 -15 62 -11 26 4 59 2 73 -3 35 -14 56 -68 44 -111 -15 -50
-14 -51 36 -43 39 5 47 4 59 -13 10 -14 31 -23 63 -27 61 -8 124 -51 151 -104
33 -66 53 -148 46 -195 -6 -42 -5 -44 49 -95 30 -29 62 -52 70 -52 20 0 21 -4
-13 82 -28 68 -44 142 -71 328 -12 79 -30 118 -30 63 0 -17 -7 -36 -15 -43
-12 -10 -20 -7 -43 18 -15 16 -42 33 -59 36 -47 11 -62 35 -72 115 -5 39 -15
79 -22 87 -18 22 -53 14 -57 -14 -2 -12 -12 -27 -22 -32 -25 -13 -60 19 -60
54 0 27 -58 117 -79 124 -11 4 -12 -2 -7 -24z"/>
<path d="M5820 5498 c0 -6 18 -39 39 -72 98 -150 118 -284 46 -302 -33 -8 -52
8 -81 73 -25 58 -50 69 -60 26 -8 -32 16 -175 62 -366 56 -230 65 -305 70
-537 3 -118 7 -225 10 -237 5 -25 41 -40 58 -24 7 8 13 88 16 239 l5 227 33
-3 c46 -5 43 25 -5 44 -98 39 -114 63 -67 101 21 17 25 23 12 23 -23 0 -34 20
-17 31 8 5 62 9 122 9 66 0 107 4 107 10 0 16 -38 27 -123 33 -128 11 -139 22
-177 171 -24 97 -25 117 -5 109 9 -3 21 2 28 11 11 15 19 15 66 5 78 -17 150
-7 223 29 64 32 157 100 158 116 0 10 -228 1 -238 -9 -10 -10 29 -35 54 -35
29 0 39 -27 14 -40 -10 -5 -34 -10 -54 -10 -19 0 -46 -4 -61 -10 -30 -11 -36
-1 -54 95 -6 33 -31 102 -56 153 -47 98 -53 122 -32 122 18 0 102 -41 224
-109 121 -66 193 -91 267 -91 60 0 52 9 -34 40 -35 12 -128 55 -205 94 -77 40
-164 77 -193 84 -70 16 -152 16 -152 0z"/>
<path d="M3120 5421 c0 -36 25 -48 112 -55 142 -11 588 -35 948 -51 463 -20
904 -46 910 -52 6 -7 -559 3 -975 16 -454 15 -937 21 -875 11 53 -8 239 -18
1165 -61 759 -35 744 -34 751 -15 4 9 0 33 -8 54 l-14 37 -184 12 c-294 19
-773 42 -1205 58 -438 17 -568 28 -602 51 -21 13 -23 13 -23 -5z"/>
<path d="M7270 5389 c-155 -96 -217 -120 -419 -165 -23 -5 -23 -7 25 -55 64
-66 97 -84 115 -63 10 12 8 20 -11 46 -26 35 -20 42 44 52 87 14 118 28 173
78 59 54 173 114 198 104 25 -9 17 -51 -20 -102 -20 -27 -48 -76 -64 -109 -15
-33 -58 -93 -95 -133 -38 -42 -66 -81 -64 -90 2 -9 17 -19 33 -22 17 -4 47
-19 69 -33 46 -32 91 -46 171 -53 57 -5 98 6 82 22 -4 4 -44 10 -89 14 -46 3
-94 12 -106 19 -27 14 -67 95 -58 117 7 17 69 18 214 1 115 -13 132 -24 132
-83 0 -23 -7 -39 -23 -50 l-23 -17 23 -23 c26 -26 32 -91 11 -112 -7 -7 -44
-12 -95 -12 -49 0 -83 -4 -83 -10 0 -5 7 -10 17 -10 9 0 36 -12 60 -26 80 -47
135 -11 146 93 4 32 13 74 21 93 27 66 47 272 27 284 -5 4 -31 -11 -58 -32
-65 -52 -86 -62 -125 -62 -41 0 -147 25 -159 37 -5 5 17 61 56 137 71 139 71
146 16 185 -41 30 -67 26 -141 -20z"/>
<path d="M8352 5378 c-32 -32 11 -98 65 -98 35 0 39 26 9 70 -27 40 -52 50
-74 28z"/>
<path d="M9204 5366 c-11 -18 -26 -26 -52 -28 -32 -3 -37 -6 -37 -28 0 -23 4
-25 37 -23 21 1 49 10 64 19 32 22 50 64 32 76 -20 12 -26 10 -44 -16z"/>
<path d="M8253 5264 c-3 -8 -1 -33 6 -53 6 -21 11 -54 11 -74 0 -71 28 -107
55 -70 9 12 36 18 109 23 99 8 126 19 126 51 0 23 -21 24 -60 4 -33 -17 -62
-10 -58 13 2 9 21 25 43 36 42 22 53 48 23 54 -10 2 -51 -6 -93 -17 -106 -29
-112 -29 -107 14 4 32 2 35 -22 35 -15 0 -29 -7 -33 -16z"/>
<path d="M6528 5246 c-58 -21 -117 -59 -208 -136 -47 -39 -102 -80 -122 -90
-27 -14 -38 -27 -40 -47 -4 -40 -34 -42 -69 -4 -33 36 -39 37 -70 11 l-24 -19
33 -1 c31 0 37 -7 32 -39 -1 -8 4 -17 10 -21 20 -12 94 9 113 32 13 15 36 24
79 30 34 4 72 15 85 23 29 19 31 50 3 42 -46 -12 -34 33 14 56 19 8 57 36 85
61 33 29 64 47 88 51 21 4 46 9 56 12 21 6 22 39 1 47 -20 8 -22 8 -66 -8z"/>
<path d="M6560 5003 c-99 -9 -122 -15 -112 -25 7 -7 113 -13 292 -17 307 -7
294 -5 328 -72 18 -35 45 -45 50 -19 1 8 -11 37 -28 63 -46 73 -64 77 -297 75
-109 0 -214 -3 -233 -5z"/>
<path d="M8290 4988 c0 -51 -22 -348 -30 -413 -13 -94 -85 -483 -100 -537 -12
-42 -42 -68 -78 -68 -33 0 -23 -23 16 -34 25 -7 41 -4 79 15 45 22 50 29 70
89 11 36 26 115 32 175 12 114 42 299 64 395 l12 55 125 2 c152 3 177 8 160
29 -9 10 -11 34 -6 80 8 75 -1 94 -45 94 -25 0 -59 -22 -59 -38 0 -4 14 -19
30 -34 33 -29 38 -54 16 -84 -21 -28 -154 -27 -193 2 -41 31 -40 56 2 91 39
33 37 41 -20 64 l-30 12 40 8 c22 4 65 10 96 14 64 7 95 24 86 48 -8 21 -61
34 -174 42 -74 5 -93 4 -93 -7z"/>
<path d="M5116 4945 c-3 -9 -6 -47 -6 -83 0 -114 31 -185 66 -150 14 14 14 19
-2 54 -9 21 -20 72 -23 113 -6 71 -21 100 -35 66z"/>
<path d="M3060 4871 c0 -6 8 -11 17 -11 9 0 78 -4 152 -10 423 -29 660 -42
676 -36 29 11 3 28 -67 43 -84 19 -778 32 -778 14z"/>
<path d="M4072 4838 c-28 -28 -7 -48 48 -48 30 0 80 18 80 30 0 28 -103 43
-128 18z"/>
<path d="M4480 4828 c-154 -19 -75 -36 131 -28 57 2 113 -17 121 -42 6 -16 38
-2 38 16 0 20 -47 44 -101 51 -88 12 -115 12 -189 3z"/>
<path d="M8726 4775 c-8 -30 8 -98 27 -113 15 -13 67 -27 67 -18 0 4 -8 18
-17 32 -9 14 -22 47 -28 72 -14 53 -39 67 -49 27z"/>
<path d="M9282 4720 c5 -67 21 -106 39 -94 14 8 10 91 -5 129 -25 59 -39 44
-34 -35z"/>
<path d="M9520 4771 c0 -5 11 -22 25 -37 18 -19 25 -38 25 -65 0 -47 11 -54
42 -29 40 31 70 34 101 10 15 -12 27 -30 27 -40 0 -10 5 -22 10 -25 23 -14 8
47 -19 77 -42 48 -211 135 -211 109z"/>
<path d="M8820 4748 c0 -29 32 -100 51 -113 8 -6 36 -17 63 -23 27 -7 79 -30
115 -52 72 -43 91 -48 91 -25 0 49 -34 77 -89 72 -25 -2 -36 12 -46 55 -7 38
-41 55 -65 33 -17 -15 -20 -13 -55 29 -41 50 -65 59 -65 24z"/>
<path d="M6236 4752 c-11 -18 8 -22 134 -34 119 -10 250 -4 250 12 0 13 -44
19 -216 26 -109 4 -163 3 -168 -4z"/>
<path d="M5154 4596 c-10 -26 4 -64 26 -71 26 -8 25 -20 -2 -40 -17 -11 -20
-19 -13 -29 59 -80 145 -255 145 -295 0 -12 -11 -32 -25 -45 -33 -31 -32 -36
10 -36 22 0 43 8 56 21 26 26 49 18 49 -19 0 -37 26 -63 37 -37 7 19 -33 105
-48 105 -11 0 -59 83 -59 103 0 9 -16 45 -35 80 -24 44 -37 82 -41 125 -5 49
-11 65 -30 77 -12 8 -24 27 -26 42 -3 31 -34 44 -44 19z"/>
<path d="M7544 4548 c-28 -44 -20 -276 10 -333 12 -23 16 -54 14 -128 -2 -77
1 -100 12 -107 21 -14 33 -7 40 21 8 26 -16 463 -28 519 -7 36 -34 52 -48 28z"/>
</g>
</svg>
